<svg width="390" height="99" viewBox="0 0 390 99" fill="none" xmlns="http://www.w3.org/2000/svg">
<g filter="url(#filter0_d_1449_1353)">
<path d="M360.501 23.7089L338.176 49.3528L360.507 75.0006H29.3182L51.6499 49.3528L29.3182 23.7089H360.528H360.501ZM360.528 19H29.3182C27.9077 18.9998 26.5204 19.2039 25.2875 19.593C24.0546 19.9822 23.0169 20.5436 22.2726 21.224C21.5282 21.9044 21.1019 22.6815 21.0338 23.4816C20.9657 24.2817 21.2582 25.0785 21.8835 25.7965L42.4049 49.341L21.8835 72.8855C21.247 73.6045 20.9456 74.4043 21.0081 75.2083C21.0706 76.0123 21.495 76.7938 22.2406 77.4783C22.9863 78.1627 24.0283 78.7271 25.2673 79.1177C26.5064 79.5083 27.9011 79.712 29.3182 79.7095H360.528C361.939 79.7097 363.326 79.5056 364.559 79.1164C365.792 78.7273 366.83 78.1659 367.574 77.4855C368.318 76.805 368.745 76.028 368.813 75.2279C368.881 74.4277 368.588 73.631 367.963 72.9129L347.448 49.3685L367.963 25.824C368.588 25.1059 368.881 24.3092 368.813 23.5091C368.745 22.7089 368.318 21.9319 367.574 21.2515C366.83 20.571 365.792 20.0097 364.559 19.6205C363.326 19.2313 361.939 19.0272 360.528 19.0275V19Z" fill="#FDD116"/>
<mask id="path-2-outside-1_1449_1353" maskUnits="userSpaceOnUse" x="15" y="14" width="359" height="71" fill="black">
<rect fill="white" x="15" y="14" width="359" height="71"/>
<path d="M360.501 23.7089L338.176 49.3528L360.507 75.0005H29.3182L51.6499 49.3528L29.3182 23.7089H360.528H360.501ZM360.528 19H29.3182C27.9077 18.9998 26.5204 19.2039 25.2875 19.593C24.0546 19.9822 23.0169 20.5436 22.2726 21.224C21.5282 21.9044 21.1019 22.6815 21.0338 23.4816C20.9657 24.2817 21.2582 25.0785 21.8835 25.7965L42.4049 49.341L21.8835 72.8855C21.247 73.6045 20.9456 74.4042 21.0081 75.2083C21.0706 76.0123 21.495 76.7938 22.2406 77.4783C22.9863 78.1627 24.0283 78.7271 25.2673 79.1177C26.5064 79.5083 27.9011 79.712 29.3182 79.7094H360.528C361.939 79.7097 363.326 79.5056 364.559 79.1164C365.792 78.7273 366.83 78.1659 367.574 77.4855C368.318 76.805 368.745 76.028 368.813 75.2279C368.881 74.4277 368.588 73.631 367.963 72.9129L347.448 49.3685L367.963 25.824C368.588 25.1059 368.881 24.3092 368.813 23.5091C368.745 22.7089 368.318 21.9319 367.574 21.2515C366.83 20.571 365.792 20.0097 364.559 19.6205C363.326 19.2313 361.939 19.0272 360.528 19.0275V19Z"/>
</mask>
<path d="M360.501 23.7089L338.176 49.3528L360.507 75.0005H29.3182L51.6499 49.3528L29.3182 23.7089H360.528H360.501ZM360.528 19H29.3182C27.9077 18.9998 26.5204 19.2039 25.2875 19.593C24.0546 19.9822 23.0169 20.5436 22.2726 21.224C21.5282 21.9044 21.1019 22.6815 21.0338 23.4816C20.9657 24.2817 21.2582 25.0785 21.8835 25.7965L42.4049 49.341L21.8835 72.8855C21.247 73.6045 20.9456 74.4042 21.0081 75.2083C21.0706 76.0123 21.495 76.7938 22.2406 77.4783C22.9863 78.1627 24.0283 78.7271 25.2673 79.1177C26.5064 79.5083 27.9011 79.712 29.3182 79.7094H360.528C361.939 79.7097 363.326 79.5056 364.559 79.1164C365.792 78.7273 366.83 78.1659 367.574 77.4855C368.318 76.805 368.745 76.028 368.813 75.2279C368.881 74.4277 368.588 73.631 367.963 72.9129L347.448 49.3685L367.963 25.824C368.588 25.1059 368.881 24.3092 368.813 23.5091C368.745 22.7089 368.318 21.9319 367.574 21.2515C366.83 20.571 365.792 20.0097 364.559 19.6205C363.326 19.2313 361.939 19.0272 360.528 19.0275V19Z" fill="#FDD116"/>
<path d="M360.501 23.7089V18.7089H358.224L356.729 20.4258L360.501 23.7089ZM338.176 49.3528L334.405 46.0697L331.546 49.353L334.405 52.6361L338.176 49.3528ZM360.507 75.0005V80.0005H371.491L364.278 71.7172L360.507 75.0005ZM29.3182 75.0005L25.5473 71.7172L18.3349 80.0005H29.3182V75.0005ZM51.6499 49.3528L55.4208 52.6361L58.2798 49.3525L55.4205 46.0691L51.6499 49.3528ZM29.3182 23.7089V18.7089H18.3338L25.5475 26.9925L29.3182 23.7089ZM360.528 19H365.528V14H360.528V19ZM29.3182 19L29.3173 24H29.3182V19ZM21.8835 25.7965L18.1129 29.0802L18.1143 29.0818L21.8835 25.7965ZM42.4049 49.341L46.1741 52.6262L49.0375 49.341L46.1741 46.0557L42.4049 49.341ZM21.8835 72.8855L25.6273 76.1996L25.6401 76.1852L25.6527 76.1707L21.8835 72.8855ZM29.3182 79.7094L29.3182 74.7094L29.309 74.7095L29.3182 79.7094ZM360.528 79.7094L360.529 74.7094H360.528V79.7094ZM367.963 72.9129L371.733 69.6292L371.733 69.6283L367.963 72.9129ZM347.448 49.3685L343.679 46.0838L340.817 49.3685L343.679 52.6531L347.448 49.3685ZM367.963 25.824L371.733 29.1086L371.733 29.1077L367.963 25.824ZM360.528 19.0275H355.528V24.0283L360.529 24.0275L360.528 19.0275ZM356.729 20.4258L334.405 46.0697L341.947 52.6358L364.272 26.992L356.729 20.4258ZM334.405 52.6361L356.737 78.2839L364.278 71.7172L341.947 46.0694L334.405 52.6361ZM360.507 70.0005H29.3182V80.0005H360.507V70.0005ZM33.0891 78.2839L55.4208 52.6361L47.879 46.0694L25.5473 71.7172L33.0891 78.2839ZM55.4205 46.0691L33.0888 20.4253L25.5475 26.9925L47.8792 52.6364L55.4205 46.0691ZM29.3182 28.7089H360.528V18.7089H29.3182V28.7089ZM360.528 18.7089H360.501V28.7089H360.528V18.7089ZM360.528 14H29.3182V24H360.528V14ZM29.3191 14C27.4439 13.9997 25.5447 14.2687 23.7824 14.8249L26.7926 24.3611C27.496 24.1391 28.3714 23.9998 29.3173 24L29.3191 14ZM23.7824 14.8249C22.0444 15.3736 20.3093 16.2443 18.899 17.5336L25.6462 24.9144C25.7245 24.8428 26.0649 24.5908 26.7926 24.3611L23.7824 14.8249ZM18.899 17.5336C17.4743 18.836 16.2518 20.7073 16.0518 23.0576L26.0158 23.9055C25.952 24.6556 25.5822 24.9728 25.6462 24.9144L18.899 17.5336ZM16.0518 23.0576C15.8478 25.4552 16.7768 27.546 18.1129 29.0802L25.654 22.5128C25.688 22.5518 25.7987 22.6917 25.8924 22.947C25.9899 23.2127 26.0465 23.5451 26.0158 23.9055L16.0518 23.0576ZM18.1143 29.0818L38.6356 52.6262L46.1741 46.0557L25.6527 22.5112L18.1143 29.0818ZM38.6356 46.0557L18.1143 69.6002L25.6527 76.1707L46.1741 52.6262L38.6356 46.0557ZM18.1397 69.5713C16.7897 71.0963 15.8357 73.1858 16.0231 75.5959L25.993 74.8207C26.0213 75.1839 25.9613 75.5159 25.8624 75.7783C25.7675 76.0302 25.6577 76.1654 25.6273 76.1996L18.1397 69.5713ZM16.0231 75.5959C16.2071 77.9621 17.4297 79.8494 18.8596 81.1618L25.6216 73.7947C25.5602 73.7383 25.9341 74.0625 25.993 74.8207L16.0231 75.5959ZM18.8596 81.1618C20.2743 82.4603 22.0179 83.3359 23.764 83.8864L26.7706 74.3491C26.0387 74.1183 25.6982 73.865 25.6216 73.7947L18.8596 81.1618ZM23.764 83.8864C25.5347 84.4446 27.4435 84.7129 29.3273 84.7094L29.309 74.7095C28.3586 74.7112 27.4781 74.5721 26.7706 74.3491L23.764 83.8864ZM29.3182 84.7094H360.528V74.7094H29.3182V84.7094ZM360.527 84.7094C362.402 84.7098 364.302 84.4408 366.064 83.8845L363.054 74.3483C362.35 74.5704 361.475 74.7096 360.529 74.7094L360.527 84.7094ZM366.064 83.8845C367.802 83.3359 369.537 82.4652 370.947 81.1758L364.2 73.7951C364.122 73.8666 363.782 74.1186 363.054 74.3483L366.064 83.8845ZM370.947 81.1758C372.372 79.8734 373.595 78.0021 373.795 75.6518L363.831 74.8039C363.894 74.0539 364.264 73.7367 364.2 73.7951L370.947 81.1758ZM373.795 75.6518C373.999 73.2543 373.07 71.1635 371.733 69.6292L364.192 76.1967C364.158 76.1576 364.048 76.0177 363.954 75.7624C363.856 75.4967 363.8 75.1644 363.831 74.8039L373.795 75.6518ZM371.733 69.6283L351.218 46.0838L343.679 52.6531L364.193 76.1976L371.733 69.6283ZM351.218 52.6531L371.733 29.1086L364.193 22.5393L343.679 46.0838L351.218 52.6531ZM371.733 29.1077C373.07 27.5735 373.999 25.4826 373.795 23.0851L363.831 23.933C363.8 23.5726 363.856 23.2402 363.954 22.9745C364.048 22.7192 364.158 22.5793 364.192 22.5402L371.733 29.1077ZM373.795 23.0851C373.595 20.7348 372.372 18.8636 370.947 17.5611L364.2 24.9418C364.264 25.0002 363.894 24.683 363.831 23.933L373.795 23.0851ZM370.947 17.5611C369.537 16.2718 367.802 15.401 366.064 14.8524L363.054 24.3886C363.782 24.6183 364.122 24.8703 364.2 24.9418L370.947 17.5611ZM366.064 14.8524C364.302 14.2961 362.402 14.0271 360.527 14.0275L360.529 24.0275C361.475 24.0273 362.35 24.1665 363.054 24.3886L366.064 14.8524ZM365.528 19.0275V19H355.528V19.0275H365.528Z" fill="#CA702C" mask="url(#path-2-outside-1_1449_1353)"/>
<g filter="url(#filter1_i_1449_1353)">
<path d="M364.935 75.0006H25.5125L48.398 49.3528L25.5125 23.709H364.935L342.05 49.3528L364.935 75.0006Z" fill="url(#paint0_linear_1449_1353)"/>
</g>
</g>
<defs>
<filter id="filter0_d_1449_1353" x="5.99962" y="4" width="377.823" height="90.7095" filterUnits="userSpaceOnUse" color-interpolation-filters="sRGB">
<feFlood flood-opacity="0" result="BackgroundImageFix"/>
<feColorMatrix in="SourceAlpha" type="matrix" values="0 0 0 0 0 0 0 0 0 0 0 0 0 0 0 0 0 0 127 0" result="hardAlpha"/>
<feOffset/>
<feGaussianBlur stdDeviation="5"/>
<feComposite in2="hardAlpha" operator="out"/>
<feColorMatrix type="matrix" values="0 0 0 0 0.172549 0 0 0 0 0.317647 0 0 0 0 0.623529 0 0 0 1 0"/>
<feBlend mode="normal" in2="BackgroundImageFix" result="effect1_dropShadow_1449_1353"/>
<feBlend mode="normal" in="SourceGraphic" in2="effect1_dropShadow_1449_1353" result="shape"/>
</filter>
<filter id="filter1_i_1449_1353" x="25.5125" y="23.709" width="339.423" height="55.2917" filterUnits="userSpaceOnUse" color-interpolation-filters="sRGB">
<feFlood flood-opacity="0" result="BackgroundImageFix"/>
<feBlend mode="normal" in="SourceGraphic" in2="BackgroundImageFix" result="shape"/>
<feColorMatrix in="SourceAlpha" type="matrix" values="0 0 0 0 0 0 0 0 0 0 0 0 0 0 0 0 0 0 127 0" result="hardAlpha"/>
<feOffset dy="4"/>
<feGaussianBlur stdDeviation="2"/>
<feComposite in2="hardAlpha" operator="arithmetic" k2="-1" k3="1"/>
<feColorMatrix type="matrix" values="0 0 0 0 0 0 0 0 0 0 0 0 0 0 0 0 0 0 0.25 0"/>
<feBlend mode="normal" in2="shape" result="effect1_innerShadow_1449_1353"/>
</filter>
<linearGradient id="paint0_linear_1449_1353" x1="175.712" y1="-146.89" x2="176.115" y2="133.667" gradientUnits="userSpaceOnUse">
<stop stop-color="#2E5A9F"/>
<stop offset="1" stop-color="#35408E"/>
</linearGradient>
</defs>
</svg>
