<svg width="56" height="78" viewBox="0 0 56 78" fill="none" xmlns="http://www.w3.org/2000/svg">
<path d="M22.3127 35.7798C25.1812 35.7798 27.5065 33.5171 27.5065 30.726C27.5065 27.9348 25.1812 25.6721 22.3127 25.6721C19.4442 25.6721 17.1188 27.9348 17.1188 30.726C17.1188 33.5171 19.4442 35.7798 22.3127 35.7798Z" fill="#836055"/>
<path d="M22.3126 34.769H39.9717V59.9068C39.9717 59.9068 36.1875 62.0597 31.1422 62.0597C26.0969 62.0597 22.3126 58.5453 22.3126 58.5453V34.769Z" fill="#836055"/>
<path d="M39.9718 47.7755C39.9718 53.4903 36.3361 53.9735 33.0982 52.9486C29.8614 51.9257 23.3514 43.0107 23.3514 37.2958C23.3514 31.581 24.1658 31.7366 28.9743 31.7366C42.5687 32.242 39.9718 42.0606 39.9718 47.7755Z" fill="#553329"/>
<path d="M51.2798 29.8162C51.2798 38.8343 47.2411 48.9197 40.4891 50.4359C30.6207 49.4251 21.7185 38.8343 21.7185 29.8162C19.1963 19.1021 19.7157 6.46753 36.8554 6.46753C53.9952 6.46753 51.2798 20.7972 51.2798 29.8162Z" fill="#836055"/>
<path d="M43.0881 34.769H42.0493C41.4756 34.769 41.0106 35.2216 41.0106 35.7798C41.0106 36.338 41.4756 36.7906 42.0493 36.7906H43.0881C43.6618 36.7906 44.1269 36.338 44.1269 35.7798C44.1269 35.2216 43.6618 34.769 43.0881 34.769Z" fill="#68463C"/>
<path d="M43.0881 53.9735H20.2351C15.0718 53.9735 10.8862 58.0463 10.8862 63.0704V68.1242C10.8862 73.1483 15.0718 77.2211 20.2351 77.2211H43.0881C48.2514 77.2211 52.437 73.1483 52.437 68.1242V63.0704C52.437 58.0463 48.2514 53.9735 43.0881 53.9735Z" fill="#E05A33"/>
<path d="M3.61374 3.43319C11.9208 -4.6489 17.1188 6.4665 17.1188 6.4665L15.0392 14.5526C15.0392 14.5526 12.9616 17.0795 15.0392 24.6603C17.1167 32.241 12.4423 36.2841 12.4423 36.2841C12.4423 36.2841 8.80656 38.812 5.69024 36.7905C2.57393 34.769 2.16154 32.8263 2.57393 29.2098C3.09332 24.6613 4.65147 26.1754 4.65147 21.627C4.65147 17.0785 -4.69435 11.5153 3.6127 3.43319H3.61374Z" fill="#1B0B47"/>
<path d="M17.15 6.65039L22.8715 9.05804L19.161 17.407L13.4405 15.0013C13.4405 15.0013 12.4433 13.0374 14.0015 10.0061C15.5565 6.97384 17.151 6.65039 17.151 6.65039H17.15Z" fill="#FF6C98"/>
<path fill-rule="evenodd" clip-rule="evenodd" d="M22.3126 34.769L20.9384 25.851C19.7247 26.1739 18.6727 26.9145 17.9779 27.9351C17.2831 28.9558 16.9927 30.1872 17.1607 31.4005C17.3286 32.6139 17.9435 33.7266 18.8911 34.5321C19.8386 35.3375 21.0544 35.7809 22.3126 35.7798V44.1692C20.666 42.7477 19.2377 41.1036 18.0713 39.2871C16.3054 36.554 15.0714 33.4207 14.4543 30.0962C13.8377 26.7627 13.8517 23.3475 14.4959 20.0189C15.1399 16.7006 16.4 13.5803 18.1898 10.8664C19.9785 8.15351 22.2566 5.91062 24.8691 4.29036C27.4805 2.66909 30.3662 1.70785 33.3319 1.47133C33.9773 1.41994 34.6251 1.40307 35.2724 1.42079C38.0353 1.34968 40.7859 1.80463 43.3696 2.76006C45.7639 3.64953 47.9402 4.95241 49.7726 6.59491C51.5826 8.20669 53.0381 10.1587 54.0513 12.333C54.8218 13.9955 55.3048 15.7703 55.4806 17.586H55.5533V21.9181C55.5533 21.9181 55.2116 22.0718 54.5166 22.2881V30.8675C54.5166 30.8675 54.5166 32.2866 52.9585 33.3499C52.4183 33.7188 51.6933 34.0018 50.9744 34.2151C51.1781 32.7568 51.2812 31.2869 51.2829 29.8153C51.2829 28.7701 51.3193 27.6532 51.3567 26.4959C51.3941 25.3659 51.4325 24.1964 51.4398 23.0178C49.516 23.3605 46.9035 23.6506 43.568 23.6506C35.4157 23.6506 30.6228 21.9181 30.6228 21.9181V20.9084C29.9165 21.9838 29.1519 23.2837 28.5453 24.6614C27.7662 26.4302 27.7662 28.2435 27.7662 29.7667C27.7662 31.291 27.7662 32.5261 26.9871 33.1376C25.429 34.3607 22.3126 34.769 22.3126 34.769Z" fill="#1B0B47"/>
<path d="M37.8942 31.2314C37.8942 30.394 37.1966 29.7152 36.3361 29.7152C35.4755 29.7152 34.7779 30.394 34.7779 31.2314V32.2421C34.7779 33.0795 35.4755 33.7583 36.3361 33.7583C37.1966 33.7583 37.8942 33.0795 37.8942 32.2421V31.2314Z" fill="#1B0B47"/>
<path d="M48.282 31.2314C48.282 30.394 47.5844 29.7152 46.7238 29.7152C45.8633 29.7152 45.1656 30.394 45.1656 31.2314V32.2421C45.1656 33.0795 45.8633 33.7583 46.7238 33.7583C47.5844 33.7583 48.282 33.0795 48.282 32.2421V31.2314Z" fill="#1B0B47"/>
<path d="M32.181 32.7476H30.1034C29.2429 32.7476 28.5453 33.4264 28.5453 34.2637C28.5453 35.1011 29.2429 35.7799 30.1034 35.7799H32.181C33.0415 35.7799 33.7391 35.1011 33.7391 34.2637C33.7391 33.4264 33.0415 32.7476 32.181 32.7476Z" fill="#FF859B"/>
<path d="M50.8789 32.7476H49.8401C48.9796 32.7476 48.282 33.4264 48.282 34.2637C48.282 35.1011 48.9796 35.7799 49.8401 35.7799H50.8789C51.7395 35.7799 52.4371 35.1011 52.4371 34.2637C52.4371 33.4264 51.7395 32.7476 50.8789 32.7476Z" fill="#FF859B"/>
<path d="M32.181 32.7476H30.1034C29.2429 32.7476 28.5453 33.4264 28.5453 34.2637C28.5453 35.1011 29.2429 35.7799 30.1034 35.7799H32.181C33.0415 35.7799 33.7391 35.1011 33.7391 34.2637C33.7391 33.4264 33.0415 32.7476 32.181 32.7476Z" fill="#FF859B"/>
</svg>
