<svg width="46" height="79" viewBox="0 0 46 79" fill="none" xmlns="http://www.w3.org/2000/svg">
<path d="M11.8967 38.5905C14.7787 38.5905 17.1151 36.3891 17.1151 33.6736C17.1151 30.9582 14.7787 28.7568 11.8967 28.7568C9.0146 28.7568 6.67822 30.9582 6.67822 33.6736C6.67822 36.3891 9.0146 38.5905 11.8967 38.5905Z" fill="#F0BD70"/>
<path d="M11.8967 37.6071H29.6394V62.0633C29.6394 62.0633 25.8372 64.1578 20.768 64.1578C15.6988 64.1578 11.8967 60.7387 11.8967 60.7387V37.6071Z" fill="#F0BD70"/>
<path d="M29.6394 50.261C29.6394 55.8209 28.7188 55.2938 22.7333 55.2938C16.7477 55.2938 13.9861 50.7871 13.9861 45.2271C13.9861 39.6672 13.7586 34.657 18.5888 34.657C32.2486 35.1487 29.6394 44.701 29.6394 50.261Z" fill="#E9B05B"/>
<path d="M41.001 32.7885C41.001 41.5621 44.8481 52.3505 28.0739 52.3505C11.2997 52.3505 11.2997 41.5621 11.2997 32.7885C8.76565 22.3649 9.28749 10.0729 26.5084 10.0729C43.7292 10.0729 41.001 24.014 41.001 32.7885Z" fill="#FFCB7E"/>
<path d="M32.7705 37.6071H31.7268C31.1504 37.6071 30.6831 38.0473 30.6831 38.5904C30.6831 39.1335 31.1504 39.5738 31.7268 39.5738H32.7705C33.3469 39.5738 33.8142 39.1335 33.8142 38.5904C33.8142 38.0473 33.3469 37.6071 32.7705 37.6071Z" fill="#F0BD70"/>
<path d="M32.7704 56.291H9.80928C4.62156 56.291 0.416077 60.2534 0.416077 65.1413V70.0581C0.416077 74.9459 4.62156 78.9083 9.80928 78.9083H32.7704C37.9582 78.9083 42.1636 74.9459 42.1636 70.0581V65.1413C42.1636 60.2534 37.9582 56.291 32.7704 56.291Z" fill="#273574"/>
<path fill-rule="evenodd" clip-rule="evenodd" d="M41.0865 29.2319C41.9528 28.7713 42.616 28.0343 42.9566 27.1537C43.2972 26.2732 43.2928 25.307 42.9443 24.4292C43.897 23.9964 44.6399 23.239 45.0228 22.3101C45.4058 21.3812 45.4002 20.3499 45.0073 19.4247C44.6144 18.4995 43.8634 17.7493 42.906 17.3256C41.9487 16.902 40.8563 16.8365 39.8497 17.1424C41.3286 20.7553 41.2201 25.2237 41.0865 29.2319Z" fill="#47280B"/>
<path fill-rule="evenodd" clip-rule="evenodd" d="M30.993 19.6706C30.0419 20.4584 28.8183 20.892 27.552 20.89C26.397 20.8917 25.2744 20.5309 24.3614 19.8643C23.684 20.5024 22.8796 21.0083 21.9944 21.353C21.1091 21.6978 20.1604 21.8746 19.2025 21.8734C18.4792 21.8738 17.7599 21.7731 17.0681 21.5744C16.7961 21.8549 16.4825 22.097 16.1372 22.2932C16.548 22.7539 16.8413 23.2972 16.9943 23.8813C17.1473 24.4655 17.1561 25.075 17.0199 25.6628C16.8837 26.2507 16.6062 26.8012 16.2087 27.2722C15.8112 27.7431 15.3044 28.1219 14.7271 28.3793C14.8994 28.6016 15.0022 28.8649 15.0239 29.1394C15.0456 29.414 14.9853 29.6887 14.8499 29.9326C14.7145 30.1766 14.5093 30.3799 14.2576 30.5197C14.0059 30.6595 13.7177 30.7301 13.4257 30.7236C12.914 31.5624 12.0922 32.1941 11.1174 32.498C10.1426 32.8018 9.08315 32.7566 8.14152 32.3708C7.19989 31.9851 6.44216 31.2859 6.01318 30.407C5.58419 29.528 5.51403 28.531 5.81611 27.6063C5.4272 27.2415 5.11871 26.8078 4.90842 26.3302C4.69814 25.8526 4.5902 25.3405 4.59082 24.8234C4.59082 23.7358 5.05944 22.7515 5.81611 22.0405C5.61453 21.4193 5.57937 20.7608 5.71378 20.1236C5.84818 19.4865 6.14797 18.8907 6.58636 18.3893C6.04341 17.4879 5.72342 16.4826 5.65024 15.4485C5.57707 14.4143 5.75259 13.3779 6.16373 12.4165C6.57487 11.4552 7.21102 10.5937 8.02476 9.89625C8.83849 9.1988 9.80882 8.68342 10.8634 8.38851C10.8092 7.68181 10.9585 6.97442 11.2957 6.34109C11.6329 5.70776 12.1454 5.172 12.7791 4.79043C13.4127 4.40886 14.144 4.19565 14.8957 4.17331C15.6473 4.15098 16.3914 4.32035 17.0493 4.66354C17.6905 3.61698 18.6129 2.74797 19.7238 2.14395C20.8346 1.53994 22.0947 1.22222 23.3772 1.22276C24.8102 1.22276 26.1472 1.61119 27.2754 2.28381C28.0504 1.49723 29.023 0.907109 30.1037 0.567845C31.1844 0.228581 32.3384 0.151088 33.4592 0.342509C34.58 0.533929 35.6317 0.988104 36.5172 1.66317C37.4028 2.33824 38.0937 3.21247 38.5264 4.20529C39.0785 4.27273 39.6108 4.44353 40.0918 4.70766C40.5728 4.97179 40.9929 5.32391 41.3273 5.74329C41.6618 6.16267 41.9038 6.64085 42.0392 7.14968C42.1746 7.65851 42.2006 8.18771 42.1156 8.70614C44.0517 10.0573 45.2947 12.1499 45.2947 14.4981C45.2947 18.5712 41.5562 21.8734 36.9452 21.8734C34.6146 21.8734 32.5074 21.0296 30.993 19.6706Z" fill="#47280B"/>
<path d="M23.3032 42.5239C23.3032 42.2631 23.4132 42.013 23.6089 41.8285C23.8046 41.6441 24.0701 41.5405 24.3469 41.5405H33.8894C34.1662 41.5405 34.4316 41.6441 34.6274 41.8285C34.8231 42.013 34.933 42.2631 34.933 42.5239C34.933 43.8279 34.3832 45.0785 33.4046 46.0006C32.426 46.9227 31.0986 47.4407 29.7146 47.4407H28.5217C27.1377 47.4407 25.8103 46.9227 24.8317 46.0006C23.853 45.0785 23.3032 43.8279 23.3032 42.5239Z" fill="#66253C"/>
<path fill-rule="evenodd" clip-rule="evenodd" d="M31.471 47.1556C30.9072 47.345 30.313 47.4415 29.7145 47.4408H28.5215C27.1736 47.4408 25.878 46.9494 24.9061 46.0695C23.9341 45.1896 23.3612 43.9896 23.3073 42.7206C24.1046 42.4394 25.2882 42.4718 26.4561 42.5043C26.8276 42.5141 27.1971 42.5239 27.5519 42.5239C29.8585 42.5239 31.7267 44.0649 31.7267 45.9657C31.7267 46.3836 31.6359 46.7848 31.471 47.1556Z" fill="#B03E67"/>
<path d="M24.4209 41.5405H34.8578V42.5239C34.8578 42.7847 34.7478 43.0348 34.5521 43.2192C34.3564 43.4036 34.0909 43.5073 33.8141 43.5073H25.4646C25.1878 43.5073 24.9223 43.4036 24.7266 43.2192C24.5309 43.0348 24.4209 42.7847 24.4209 42.5239V41.5405Z" fill="white"/>
<path d="M27.5521 34.1653C27.5521 33.3507 26.8512 32.6903 25.9866 32.6903C25.1219 32.6903 24.421 33.3507 24.421 34.1653V35.1487C24.421 35.9634 25.1219 36.6238 25.9866 36.6238C26.8512 36.6238 27.5521 35.9634 27.5521 35.1487V34.1653Z" fill="#1B0B47"/>
<path d="M37.989 34.1653C37.989 33.3507 37.2881 32.6903 36.4234 32.6903C35.5588 32.6903 34.8579 33.3507 34.8579 34.1653V35.1487C34.8579 35.9634 35.5588 36.6238 36.4234 36.6238C37.2881 36.6238 37.989 35.9634 37.989 35.1487V34.1653Z" fill="#1B0B47"/>
<path d="M21.8117 35.6404H19.7243C18.8597 35.6404 18.1588 36.3008 18.1588 37.1154C18.1588 37.9301 18.8597 38.5905 19.7243 38.5905H21.8117C22.6763 38.5905 23.3773 37.9301 23.3773 37.1154C23.3773 36.3008 22.6763 35.6404 21.8117 35.6404Z" fill="#FF859B"/>
<path d="M40.5981 35.6404H39.5544C38.6898 35.6404 37.9889 36.3008 37.9889 37.1154C37.9889 37.9301 38.6898 38.5905 39.5544 38.5905H40.5981C41.4627 38.5905 42.1636 37.9301 42.1636 37.1154C42.1636 36.3008 41.4627 35.6404 40.5981 35.6404Z" fill="#FF859B"/>
</svg>
