<svg width="44" height="77" viewBox="0 0 44 77" fill="none" xmlns="http://www.w3.org/2000/svg">
<path d="M11.7043 36.0599C14.4578 36.0599 16.6901 33.8277 16.6901 31.0742C16.6901 28.3206 14.4578 26.0884 11.7043 26.0884C8.95071 26.0884 6.71851 28.3206 6.71851 31.0742C6.71851 33.8277 8.95071 36.0599 11.7043 36.0599Z" fill="#68463C"/>
<path d="M11.7042 35.0627H28.6559V59.862C28.6559 59.862 25.0232 61.9859 20.18 61.9859C15.3369 61.9859 11.7042 58.5188 11.7042 58.5188V35.0627Z" fill="#68463C"/>
<path d="M28.6558 47.8941C28.6558 53.5321 27.7763 52.9976 22.0576 52.9976C16.3389 52.9976 13.7005 48.4276 13.7005 42.7897C13.7005 37.1518 13.4831 32.0713 18.0979 32.0713C31.1487 32.5699 28.6558 42.2562 28.6558 47.8941Z" fill="#553329"/>
<path d="M39.511 30.1767C39.511 39.0734 43.1865 50.0131 27.1602 50.0131C11.134 50.0131 11.1339 39.0734 11.1339 30.1767C8.71286 19.6069 9.21143 7.14246 25.6645 7.14246C42.1176 7.14246 39.511 21.2791 39.511 30.1767Z" fill="#836055"/>
<path d="M31.6474 35.0627H30.6502C30.0995 35.0627 29.6531 35.5092 29.6531 36.0599C29.6531 36.6106 30.0995 37.0571 30.6502 37.0571H31.6474C32.1981 37.0571 32.6445 36.6106 32.6445 36.0599C32.6445 35.5092 32.1981 35.0627 31.6474 35.0627Z" fill="#68463C"/>
<path d="M31.6474 54.0087H9.70999C4.75357 54.0087 0.735596 58.0266 0.735596 62.9831V67.9688C0.735596 72.9253 4.75357 76.9432 9.70999 76.9432H31.6474C36.6038 76.9432 40.6218 72.9253 40.6218 67.9688V62.9831C40.6218 58.0266 36.6038 54.0087 31.6474 54.0087Z" fill="#E05A33"/>
<path d="M14.3697 22.319V28.3209C14.3697 29.0798 13.6986 30.0769 13.2 30.5755C12.7014 31.0741 11.2057 32.0712 10.3581 32.0712C9.51253 32.0712 6.82919 31.6215 5.54585 29.8206C4.26251 28.0208 4.65539 18.5309 5.54585 16.3192C6.43531 14.1075 9.71695 9.45076 14.3707 5.8969C17.7411 3.32225 22.0139 1.19332 27.2051 0.567105C52.0741 -2.43433 42.8335 15.1056 39.6246 19.6068C34.1403 17.6125 30.1516 17.1139 22.9552 18.0931C15.7587 19.0733 14.962 20.0695 14.3697 22.32V22.319Z" fill="#1B0B47"/>
<path d="M22.6023 40.0485C22.6023 39.7841 22.7074 39.5305 22.8944 39.3435C23.0814 39.1564 23.335 39.0514 23.5995 39.0514H32.7164C32.9809 39.0514 33.2345 39.1564 33.4215 39.3435C33.6085 39.5305 33.7136 39.7841 33.7136 40.0485C33.7136 41.3709 33.1883 42.639 32.2533 43.574C31.3183 44.509 30.0501 45.0343 28.7278 45.0343H27.5881C26.2658 45.0343 24.9976 44.509 24.0626 43.574C23.1276 42.639 22.6023 41.3709 22.6023 40.0485Z" fill="#66253C"/>
<path fill-rule="evenodd" clip-rule="evenodd" d="M30.4059 44.7452C29.8673 44.9373 29.2996 45.0351 28.7277 45.0343H27.588C26.3002 45.0343 25.0624 44.5361 24.1337 43.6439C23.2051 42.7517 22.6577 41.5347 22.6062 40.248C23.368 39.9628 24.4988 39.9957 25.6146 40.0286C25.9696 40.0386 26.3226 40.0486 26.6616 40.0486C28.8653 40.0486 30.6503 41.6111 30.6503 43.5386C30.6503 43.9624 30.5635 44.3692 30.4059 44.7452Z" fill="#B03E67"/>
<path d="M23.6702 39.0514H33.6417V40.0485C33.6417 40.313 33.5367 40.5666 33.3497 40.7536C33.1627 40.9406 32.909 41.0457 32.6446 41.0457H24.6673C24.4029 41.0457 24.1492 40.9406 23.9622 40.7536C23.7752 40.5666 23.6702 40.313 23.6702 40.0485V39.0514Z" fill="white"/>
<path d="M25.6644 39.3505C25.6644 39.2712 25.6959 39.1951 25.752 39.139C25.8081 39.0829 25.8842 39.0514 25.9636 39.0514H27.3596C27.4389 39.0514 27.515 39.0829 27.5711 39.139C27.6272 39.1951 27.6587 39.2712 27.6587 39.3505V41.7437C27.6587 41.823 27.6272 41.8991 27.5711 41.9552C27.515 42.0113 27.4389 42.0429 27.3596 42.0429H25.9636C25.8842 42.0429 25.8081 42.0113 25.752 41.9552C25.6959 41.8991 25.6644 41.823 25.6644 41.7437V39.3505Z" fill="#B03E67"/>
<path d="M23.6702 31.5726C23.6702 31.1759 23.8278 30.7955 24.1083 30.515C24.3888 30.2345 24.7692 30.0769 25.1659 30.0769C25.5626 30.0769 25.943 30.2345 26.2235 30.515C26.504 30.7955 26.6616 31.1759 26.6616 31.5726V32.7961C26.6616 32.9457 26.54 33.0684 26.3894 33.0684H23.9424C23.8702 33.0684 23.801 33.0397 23.7499 32.9886C23.6988 32.9376 23.6702 32.8683 23.6702 32.7961V31.5726ZM33.6417 31.5726C33.6417 31.1759 33.7993 30.7955 34.0798 30.515C34.3603 30.2345 34.7408 30.0769 35.1375 30.0769C35.5341 30.0769 35.9146 30.2345 36.1951 30.515C36.4756 30.7955 36.6332 31.1759 36.6332 31.5726V32.7961C36.6332 32.9457 36.5115 33.0684 36.361 33.0684H33.9139C33.8417 33.0684 33.7725 33.0397 33.7214 32.9886C33.6704 32.9376 33.6417 32.8683 33.6417 32.7961V31.5726Z" fill="#1B0B47"/>
<path d="M23.9384 34.6021C26.2894 34.6021 28.1952 32.6962 28.1952 30.3452C28.1952 27.9942 26.2894 26.0884 23.9384 26.0884C21.5874 26.0884 19.6815 27.9942 19.6815 30.3452C19.6815 32.6962 21.5874 34.6021 23.9384 34.6021Z" stroke="white" stroke-width="2.65908"/>
<path d="M37.8986 34.6021C40.2496 34.6021 42.1554 32.6962 42.1554 30.3452C42.1554 27.9942 40.2496 26.0884 37.8986 26.0884C35.5476 26.0884 33.6417 27.9942 33.6417 30.3452C33.6417 32.6962 35.5476 34.6021 37.8986 34.6021Z" stroke="white" stroke-width="2.65908"/>
<path d="M27.6438 29.1835L34.6239 29.0798" stroke="white" stroke-width="2.65908"/>
<path d="M21.6759 40.0485C21.6759 39.2551 21.9911 38.4942 22.5521 37.9332C23.1131 37.3722 23.874 37.057 24.6674 37.057H33.6418C34.4352 37.057 35.196 37.3722 35.757 37.9332C36.3181 38.4942 36.6332 39.2551 36.6332 40.0485H21.6759Z" fill="#1B0B47"/>
</svg>
