<svg width="42" height="77" viewBox="0 0 42 77" fill="none" xmlns="http://www.w3.org/2000/svg">
<path d="M11.768 35.5858C14.5406 35.5858 16.7882 33.3253 16.7882 30.5368C16.7882 27.7482 14.5406 25.4877 11.768 25.4877C8.99543 25.4877 6.7478 27.7482 6.7478 30.5368C6.7478 33.3253 8.99543 35.5858 11.768 35.5858Z" fill="#EAC0B3"/>
<path d="M11.7681 34.5759H28.8368V59.6901C28.8368 59.6901 25.1791 61.841 20.3024 61.841C15.4258 61.841 11.7681 58.3298 11.7681 58.3298V34.5759Z" fill="#EAC0B3"/>
<path d="M28.6469 46.8068C28.6469 52.2447 27.7734 51.7297 22.0875 51.7297C16.4016 51.7297 13.7781 47.3219 13.7781 41.884C13.7781 36.4471 13.5622 31.5465 18.1507 31.5465C31.1259 32.0272 28.6469 41.369 28.6469 46.8068Z" fill="#C99688"/>
<path d="M39.7666 29.628C39.7666 38.6376 38.375 49.7163 27.3306 49.7163C16.2861 49.7163 11.1936 38.6376 11.1936 29.628C8.75581 18.924 9.25784 6.30127 25.8245 6.30127C42.3912 6.30127 39.7666 20.6174 39.7666 29.628Z" fill="#F5D0C5"/>
<path d="M31.8489 34.5759H30.8449C30.2903 34.5759 29.8408 35.028 29.8408 35.5857C29.8408 36.1435 30.2903 36.5956 30.8449 36.5956H31.8489C32.4034 36.5956 32.8529 36.1435 32.8529 35.5857C32.8529 35.028 32.4034 34.5759 31.8489 34.5759Z" fill="#EAC0B3"/>
<path d="M31.8489 53.7626H9.76001C4.76936 53.7626 0.723633 57.8316 0.723633 62.8509V67.9C0.723633 72.9194 4.76936 76.9883 9.76001 76.9883H31.8489C36.8396 76.9883 40.8853 72.9194 40.8853 67.9V62.8509C40.8853 57.8316 36.8396 53.7626 31.8489 53.7626Z" fill="#D53951"/>
<path d="M10.764 51.743H29.8408V54.7725C29.8408 54.7725 24.8206 55.7823 20.3024 55.7823C15.7842 55.7823 10.764 54.7725 10.764 54.7725V51.743Z" fill="#3633E0"/>
<path d="M10.764 51.743H29.8408V53.7627C29.8408 53.7627 26.8287 55.2774 20.3024 55.2774C13.7762 55.2774 10.764 53.7627 10.764 53.7627V51.743Z" fill="#FF859B"/>
<path d="M10.262 52.7527C10.262 52.217 10.4736 51.7033 10.8502 51.3246C11.2268 50.9458 11.7375 50.733 12.2701 50.733H28.3348C28.8673 50.733 29.3781 50.9458 29.7547 51.3246C30.1313 51.7033 30.3429 52.217 30.3429 52.7527C30.3429 52.7527 25.3226 53.7625 20.3024 53.7625C15.2822 53.7625 10.262 52.7527 10.262 52.7527Z" fill="#D53951"/>
<path fill-rule="evenodd" clip-rule="evenodd" d="M41.8893 18.419C41.8888 13.6423 40.0187 9.0578 36.6837 5.65697C33.3486 2.25615 28.8165 0.312368 24.0676 0.246018C19.3186 0.179669 14.7346 1.99608 11.3069 5.30242C7.87916 8.60876 5.88324 13.1393 5.7508 17.9141H5.74377V58.8116H16.7882V28.1102C19.2833 27.6275 23.5956 26.5652 29.0456 24.3173C34.5317 22.0543 37.9544 19.9155 39.7567 18.625C39.9997 21.1738 39.9153 23.8356 39.837 26.3097C39.8009 27.4669 39.7657 28.5818 39.7657 29.6269C39.7657 30.0389 39.7577 30.453 39.7406 30.868C39.9726 30.7943 40.1894 30.7135 40.3822 30.6257C41.8883 29.9349 41.8883 29.013 41.8883 29.013V18.419H41.8893ZM8.7559 26.4975C8.03495 27.0399 7.47299 27.768 7.12935 28.605C6.70299 29.6407 6.63142 30.7896 6.92591 31.8707C7.22041 32.9518 7.86423 33.9036 8.7559 34.5761V26.4975Z" fill="#1B0B47"/>
<path d="M22.7413 39.6251C22.7413 39.3572 22.8471 39.1004 23.0354 38.911C23.2237 38.7216 23.4791 38.6152 23.7454 38.6152H32.9253C33.1916 38.6152 33.447 38.7216 33.6353 38.911C33.8236 39.1004 33.9294 39.3572 33.9294 39.6251C33.9294 40.9641 33.4005 42.2484 32.459 43.1953C31.5175 44.1422 30.2406 44.6741 28.9092 44.6741H27.7615C26.4301 44.6741 25.1532 44.1422 24.2117 43.1953C23.2702 42.2484 22.7413 40.9641 22.7413 39.6251Z" fill="#66253C"/>
<path fill-rule="evenodd" clip-rule="evenodd" d="M30.599 44.3814C30.0566 44.5759 29.485 44.675 28.9092 44.6742H27.7616C26.4649 44.6742 25.2185 44.1696 24.2834 43.2661C23.3484 42.3625 22.7972 41.1302 22.7454 39.8271C23.5124 39.5383 24.651 39.5716 25.7746 39.6049C26.132 39.615 26.4874 39.6251 26.8288 39.6251C29.0477 39.6251 30.845 41.2075 30.845 43.1595C30.845 43.5887 30.7576 44.0007 30.599 44.3814Z" fill="#B03E67"/>
<path d="M23.8165 38.6152H33.8569V39.6251C33.8569 39.8929 33.7512 40.1497 33.5629 40.3391C33.3746 40.5285 33.1192 40.6349 32.8529 40.6349H24.8206C24.5543 40.6349 24.2989 40.5285 24.1106 40.3391C23.9223 40.1497 23.8165 39.8929 23.8165 39.6251V38.6152Z" fill="white"/>
<path d="M26.8287 31.0417C26.8287 30.2051 26.1544 29.527 25.3226 29.527C24.4908 29.527 23.8165 30.2051 23.8165 31.0417V32.0515C23.8165 32.8881 24.4908 33.5662 25.3226 33.5662C26.1544 33.5662 26.8287 32.8881 26.8287 32.0515V31.0417Z" fill="#1B0B47"/>
<path d="M36.8689 31.0417C36.8689 30.2051 36.1946 29.527 35.3629 29.527C34.5311 29.527 33.8568 30.2051 33.8568 31.0417V32.0515C33.8568 32.8881 34.5311 33.5662 35.3629 33.5662C36.1946 33.5662 36.8689 32.8881 36.8689 32.0515V31.0417Z" fill="#1B0B47"/>
</svg>
