<svg width="56" height="77" viewBox="0 0 56 77" fill="none" xmlns="http://www.w3.org/2000/svg">
<path d="M39.7998 47.5452C39.7998 53.2601 36.1641 53.7433 32.9262 52.7184C29.6894 51.6955 23.1794 42.7805 23.1794 37.0656C23.1794 31.3507 23.9938 31.5064 28.8023 31.5064C42.3967 32.0118 39.7998 41.8304 39.7998 47.5452Z" fill="#DEB6AA"/>
<path d="M51.1079 29.5861C51.1079 38.6042 47.0691 48.6896 40.3171 50.2058C30.4488 49.195 21.5465 38.6042 21.5465 29.5861C19.0244 18.872 19.5438 6.23743 36.6835 6.23743C53.8232 6.23743 51.1079 20.5671 51.1079 29.5861V29.5861Z" fill="#F5D0C5"/>
<path d="M42.9162 34.5389H41.8774C41.3037 34.5389 40.8386 34.9915 40.8386 35.5497C40.8386 36.1079 41.3037 36.5605 41.8774 36.5605H42.9162C43.4899 36.5605 43.9549 36.1079 43.9549 35.5497C43.9549 34.9915 43.4899 34.5389 42.9162 34.5389Z" fill="#68463C"/>
<path d="M42.9161 53.7433H20.0632C14.8999 53.7433 10.7142 57.8161 10.7142 62.8402V67.894C10.7142 72.9181 14.8999 76.9909 20.0632 76.9909H42.9161C48.0794 76.9909 52.2651 72.9181 52.2651 67.894V62.8402C52.2651 57.8161 48.0794 53.7433 42.9161 53.7433Z" fill="#B96E14"/>
<path d="M3.44174 3.20296C11.7488 -4.87913 16.9468 6.23627 16.9468 6.23627L14.8672 14.3224C14.8672 14.3224 12.7896 16.8493 14.8672 24.4301C16.9447 32.0108 12.2703 36.0539 12.2703 36.0539C12.2703 36.0539 8.63456 38.5818 5.51825 36.5603C2.40193 34.5388 1.98954 32.5961 2.40193 28.9795C2.92132 24.4311 4.47947 25.9452 4.47947 21.3968C4.47947 16.8483 -4.86635 11.2851 3.4407 3.20296H3.44174Z" fill="#1B0B47"/>
<path d="M16.9781 6.42029L22.6996 8.82793L18.9892 17.1769L13.2686 14.7712C13.2686 14.7712 12.2714 12.8073 13.8296 9.77603C15.3846 6.74373 16.9791 6.42029 16.9791 6.42029H16.9781Z" fill="#FF6C98"/>
<path fill-rule="evenodd" clip-rule="evenodd" d="M22.1406 34.5389L20.7664 25.6209C19.5527 25.9438 18.5007 26.6844 17.8059 27.705C17.1111 28.7257 16.8207 29.9571 16.9887 31.1704C17.1566 32.3838 17.7715 33.4965 18.7191 34.302C19.6666 35.1074 20.8824 35.5508 22.1406 35.5497V43.939C20.494 42.5176 19.0657 40.8735 17.8993 39.057C16.1334 36.3239 14.8994 33.1906 14.2823 29.8661C13.6657 26.5326 13.6797 23.1174 14.3239 19.7888C14.9679 16.4705 16.228 13.3502 18.0178 10.6363C19.8065 7.92341 22.0846 5.68051 24.6971 4.06026C27.3085 2.43899 30.1942 1.47775 33.1599 1.24123C33.8053 1.18984 34.4531 1.17297 35.1004 1.19069C37.8633 1.11958 40.6139 1.57453 43.1976 2.52995C45.592 3.41943 47.7682 4.72231 49.6006 6.3648C51.4106 7.97658 52.8661 9.92858 53.8793 12.1029C54.6498 13.7653 55.1328 15.5402 55.3086 17.3559H55.3813V21.688C55.3813 21.688 55.0396 21.8417 54.3446 22.058V30.6374C54.3446 30.6374 54.3446 32.0565 52.7865 33.1198C52.2463 33.4887 51.5213 33.7717 50.8024 33.985C51.0061 32.5267 51.1092 31.0568 51.1109 29.5851C51.1109 28.54 51.1473 27.4231 51.1847 26.2658C51.2221 25.1358 51.2605 23.9663 51.2678 22.7877C49.344 23.1304 46.7315 23.4205 43.396 23.4205C35.2437 23.4205 30.4508 21.688 30.4508 21.688V20.6783C29.7445 21.7537 28.9799 23.0536 28.3733 24.4312C27.5942 26.2001 27.5942 28.0134 27.5942 29.5366C27.5942 31.0609 27.5942 32.296 26.8151 32.9075C25.257 34.1306 22.1406 34.5389 22.1406 34.5389Z" fill="#1B0B47"/>
<path d="M49.7434 33.3569C49.7434 34.2263 49.0386 34.9312 48.1691 34.9312V34.9312C47.2997 34.9312 46.5949 34.2263 46.5949 33.3569L46.5949 32.0688C46.5949 31.9108 46.723 31.7826 46.8811 31.7826L49.4572 31.7826C49.6153 31.7826 49.7434 31.9108 49.7434 32.0688L49.7434 33.3569Z" fill="#1B0B47"/>
<path d="M39.2482 33.3569C39.2482 34.2263 38.5433 34.9312 37.6739 34.9312V34.9312C36.8044 34.9312 36.0996 34.2263 36.0996 33.3569L36.0996 32.0688C36.0996 31.9108 36.2278 31.7826 36.3859 31.7826L38.9619 31.7826C39.12 31.7826 39.2482 31.9108 39.2482 32.0688L39.2482 33.3569Z" fill="#1B0B47"/>
<line x1="35.5749" y1="32.3073" x2="39.773" y2="32.3073" stroke="#1B0B47" stroke-width="1.04952" stroke-linecap="round"/>
<line x1="46.07" y1="32.3073" x2="50.2681" y2="32.3073" stroke="#1B0B47" stroke-width="1.04952" stroke-linecap="round"/>
<rect x="30" y="36" width="5.24758" height="3.14855" rx="1.57427" fill="#FF859B"/>
<rect x="49.9408" y="36" width="4.19806" height="3.14855" rx="1.57427" fill="#FF859B"/>
</svg>
