<svg width="50" height="76" viewBox="0 0 50 76" fill="none" xmlns="http://www.w3.org/2000/svg">
<path d="M13.0942 34.3081C16.1477 34.3081 18.623 32.0571 18.623 29.2804C18.623 26.5037 16.1477 24.2527 13.0942 24.2527C10.0408 24.2527 7.56543 26.5037 7.56543 29.2804C7.56543 32.0571 10.0408 34.3081 13.0942 34.3081Z" fill="#EAC0B3"/>
<path d="M13.0942 33.3025H31.8922V58.3103C31.8922 58.3103 27.8639 60.4521 22.4932 60.4521C17.1225 60.4521 13.0942 56.9559 13.0942 56.9559V33.3025Z" fill="#EAC0B3"/>
<path d="M31.6831 45.4816C31.6831 50.8965 30.7211 50.3836 24.4592 50.3836C18.1973 50.3836 15.3079 45.9945 15.3079 40.5796C15.3079 35.1658 15.0702 30.2859 20.1235 30.2859C34.4132 30.7645 31.6831 40.0668 31.6831 45.4816Z" fill="#C99688"/>
<path d="M43.9294 28.3753C43.9294 37.3468 42.3969 48.3786 30.2335 48.3786C18.0702 48.3786 12.4617 37.3468 12.4617 28.3753C9.77696 17.7166 10.3298 5.14734 28.5749 5.14734C46.8199 5.14734 43.9294 19.4029 43.9294 28.3753Z" fill="#F5D0C5"/>
<path d="M35.2094 33.3025H34.1037C33.493 33.3025 32.9979 33.7527 32.9979 34.308C32.9979 34.8634 33.493 35.3136 34.1037 35.3136H35.2094C35.8201 35.3136 36.3152 34.8634 36.3152 34.308C36.3152 33.7527 35.8201 33.3025 35.2094 33.3025Z" fill="#EAC0B3"/>
<path d="M35.2094 52.4078H10.8827C5.38644 52.4078 0.930847 56.4596 0.930847 61.4577V66.4854C0.930847 71.4835 5.38644 75.5353 10.8827 75.5353H35.2094C40.7056 75.5353 45.1612 71.4835 45.1612 66.4854V61.4577C45.1612 56.4596 40.7056 52.4078 35.2094 52.4078Z" fill="#EFEFEF"/>
<path fill-rule="evenodd" clip-rule="evenodd" d="M25.2189 18.4215C31.4222 20.2949 40.0239 22.8912 49.0314 14.7C53.4544 10.6779 33.5508 -6.41635 17.5173 3.13629C4.98569 4.8246 5.70112 11.6532 6.254 16.9223C6.36015 17.9308 6.45967 18.8811 6.45967 19.7277C6.45967 20.2637 6.53707 20.6649 6.68082 20.9525C6.53194 22.0473 6.45808 23.1495 6.45967 24.2527C6.45967 25.3194 6.92567 26.3425 7.75515 27.0968C8.58463 27.8511 9.70965 28.2748 10.8827 28.2748C12.0558 28.2748 13.1808 27.8511 14.0103 27.0968C14.8397 26.3425 15.3057 25.3194 15.3057 24.2527C15.981 24.2527 16.6474 24.1122 17.2537 23.8419C17.86 23.5715 18.3902 23.1785 18.8036 22.693C19.217 22.2074 19.5027 21.6422 19.6387 21.0408C19.7747 20.4393 19.7575 19.8174 19.5884 19.2229L19.7288 19.225C21.0822 19.225 22.293 18.6719 23.1047 17.8021C23.7725 17.9851 24.4791 18.1983 25.2189 18.4215Z" fill="#1B0B47"/>
<path d="M26.6608 32.838C29.2678 32.838 31.3813 30.9161 31.3813 28.5453C31.3813 26.1746 29.2678 24.2527 26.6608 24.2527C24.0537 24.2527 21.9403 26.1746 21.9403 28.5453C21.9403 30.9161 24.0537 32.838 26.6608 32.838Z" stroke="black" stroke-width="2"/>
<path d="M42.1414 32.838C44.7484 32.838 46.8619 30.9161 46.8619 28.5453C46.8619 26.1746 44.7484 24.2527 42.1414 24.2527C39.5343 24.2527 37.4209 26.1746 37.4209 28.5453C37.4209 30.9161 39.5343 32.838 42.1414 32.838Z" stroke="black" stroke-width="2"/>
<path d="M30.7698 27.3739L38.5101 27.2693" stroke="black" stroke-width="2"/>
<path d="M24.1518 38.3302C24.1518 37.5302 24.5013 36.7629 25.1234 36.1971C25.7455 35.6314 26.5893 35.3136 27.4691 35.3136H37.4209C38.3007 35.3136 39.1445 35.6314 39.7666 36.1971C40.3887 36.7629 40.7382 37.5302 40.7382 38.3302H24.1518Z" fill="#1B0B47"/>
</svg>
